<?xml version="1.0" encoding="UTF-8" standalone="no"?>
<svg width="158.044mm" height="82.9028mm"
 viewBox="0 0 448 235"
 xmlns="http://www.w3.org/2000/svg" xmlns:xlink="http://www.w3.org/1999/xlink" version="1.1">
<title>Qt SVG Document</title>
<desc>MATLAB, The MathWorks, Inc. Version 26.1.0.3312084 R2026a Update 4</desc>
<defs>
</defs>
<g fill="none" stroke="black" stroke-width="1" fill-rule="evenodd" stroke-linecap="square" stroke-linejoin="bevel" >

<g fill="#ffffff" fill-opacity="1" stroke="none" transform="matrix(0.6,0,0,0.6,0,0)"
font-family="Segoe UI" font-size="9" font-weight="400" font-style="normal" 
>
<path vector-effect="none" fill-rule="evenodd" d="M0,0 L748,0 L748,393 L0,393 L0,0"/>
</g>

<g fill="#ffffff" fill-opacity="1" stroke="none" transform="matrix(6e-05,0,0,6e-05,0,0)"
font-family="Segoe UI" font-size="9" font-weight="400" font-style="normal" 
>
<path vector-effect="none" fill-rule="evenodd" d="M970000,990000 L970000,3.48e+06 L6.75e+06,3.48e+06 L6.75e+06,990000 L970000,990000"/>
</g>

<g fill="#212121" fill-opacity="1" stroke="#212121" stroke-opacity="1" stroke-width="0.833333" stroke-linecap="square" stroke-linejoin="round" transform="matrix(0.6,0,0,0.6,0,0)"
font-family="Segoe UI" font-size="9" font-weight="400" font-style="normal" 
>
<polyline fill="none" vector-effect="none" points="97,348 675,348 " />
<polyline fill="none" vector-effect="none" points="97,99 675,99 " />
<polyline fill="none" vector-effect="none" points="141.462,348 141.462,342.22 " />
<polyline fill="none" vector-effect="none" points="141.462,104.78 141.462,99 " />
<polyline fill="none" vector-effect="none" points="215.564,348 215.564,342.22 " />
<polyline fill="none" vector-effect="none" points="215.564,104.78 215.564,99 " />
<polyline fill="none" vector-effect="none" points="289.667,348 289.667,342.22 " />
<polyline fill="none" vector-effect="none" points="289.667,104.78 289.667,99 " />
<polyline fill="none" vector-effect="none" points="363.769,348 363.769,342.22 " />
<polyline fill="none" vector-effect="none" points="363.769,104.78 363.769,99 " />
<polyline fill="none" vector-effect="none" points="437.872,348 437.872,342.22 " />
<polyline fill="none" vector-effect="none" points="437.872,104.78 437.872,99 " />
<polyline fill="none" vector-effect="none" points="511.974,348 511.974,342.22 " />
<polyline fill="none" vector-effect="none" points="511.974,104.78 511.974,99 " />
<polyline fill="none" vector-effect="none" points="586.077,348 586.077,342.22 " />
<polyline fill="none" vector-effect="none" points="586.077,104.78 586.077,99 " />
<polyline fill="none" vector-effect="none" points="660.18,348 660.18,342.22 " />
<polyline fill="none" vector-effect="none" points="660.18,104.78 660.18,99 " />
</g>

<g fill="#212121" fill-opacity="1" stroke="#212121" stroke-opacity="1" stroke-width="1" stroke-linecap="square" stroke-linejoin="bevel" transform="matrix(0.6,0,0,0.6,74.6769,226.2)"
font-family="Helvetica" font-size="23" font-weight="400" font-style="normal" 
>
<text fill="#212121" fill-opacity="1" stroke="none" xml:space="preserve" x="0" y="0" font-family="Helvetica" font-size="23" font-weight="400" font-style="normal" 
 >-35</text>
</g>

<g fill="#212121" fill-opacity="1" stroke="#212121" stroke-opacity="1" stroke-width="1" stroke-linecap="square" stroke-linejoin="bevel" transform="matrix(0.6,0,0,0.6,119.138,226.2)"
font-family="Helvetica" font-size="23" font-weight="400" font-style="normal" 
>
<text fill="#212121" fill-opacity="1" stroke="none" xml:space="preserve" x="0" y="0" font-family="Helvetica" font-size="23" font-weight="400" font-style="normal" 
 >-30</text>
</g>

<g fill="#212121" fill-opacity="1" stroke="#212121" stroke-opacity="1" stroke-width="1" stroke-linecap="square" stroke-linejoin="bevel" transform="matrix(0.6,0,0,0.6,163.6,226.2)"
font-family="Helvetica" font-size="23" font-weight="400" font-style="normal" 
>
<text fill="#212121" fill-opacity="1" stroke="none" xml:space="preserve" x="0" y="0" font-family="Helvetica" font-size="23" font-weight="400" font-style="normal" 
 >-25</text>
</g>

<g fill="#212121" fill-opacity="1" stroke="#212121" stroke-opacity="1" stroke-width="1" stroke-linecap="square" stroke-linejoin="bevel" transform="matrix(0.6,0,0,0.6,208.062,226.2)"
font-family="Helvetica" font-size="23" font-weight="400" font-style="normal" 
>
<text fill="#212121" fill-opacity="1" stroke="none" xml:space="preserve" x="0" y="0" font-family="Helvetica" font-size="23" font-weight="400" font-style="normal" 
 >-20</text>
</g>

<g fill="#212121" fill-opacity="1" stroke="#212121" stroke-opacity="1" stroke-width="1" stroke-linecap="square" stroke-linejoin="bevel" transform="matrix(0.6,0,0,0.6,252.523,226.2)"
font-family="Helvetica" font-size="23" font-weight="400" font-style="normal" 
>
<text fill="#212121" fill-opacity="1" stroke="none" xml:space="preserve" x="0" y="0" font-family="Helvetica" font-size="23" font-weight="400" font-style="normal" 
 >-15</text>
</g>

<g fill="#212121" fill-opacity="1" stroke="#212121" stroke-opacity="1" stroke-width="1" stroke-linecap="square" stroke-linejoin="bevel" transform="matrix(0.6,0,0,0.6,296.985,226.2)"
font-family="Helvetica" font-size="23" font-weight="400" font-style="normal" 
>
<text fill="#212121" fill-opacity="1" stroke="none" xml:space="preserve" x="0" y="0" font-family="Helvetica" font-size="23" font-weight="400" font-style="normal" 
 >-10</text>
</g>

<g fill="#212121" fill-opacity="1" stroke="#212121" stroke-opacity="1" stroke-width="1" stroke-linecap="square" stroke-linejoin="bevel" transform="matrix(0.6,0,0,0.6,345.346,226.2)"
font-family="Helvetica" font-size="23" font-weight="400" font-style="normal" 
>
<text fill="#212121" fill-opacity="1" stroke="none" xml:space="preserve" x="0" y="0" font-family="Helvetica" font-size="23" font-weight="400" font-style="normal" 
 >-5</text>
</g>

<g fill="#212121" fill-opacity="1" stroke="#212121" stroke-opacity="1" stroke-width="1" stroke-linecap="square" stroke-linejoin="bevel" transform="matrix(0.6,0,0,0.6,392.208,226.2)"
font-family="Helvetica" font-size="23" font-weight="400" font-style="normal" 
>
<text fill="#212121" fill-opacity="1" stroke="none" xml:space="preserve" x="0" y="0" font-family="Helvetica" font-size="23" font-weight="400" font-style="normal" 
 >0</text>
</g>

<g fill="#212121" fill-opacity="1" stroke="#212121" stroke-opacity="1" stroke-width="0.833333" stroke-linecap="square" stroke-linejoin="round" transform="matrix(0.6,0,0,0.6,0,0)"
font-family="Helvetica" font-size="23" font-weight="400" font-style="normal" 
>
<polyline fill="none" vector-effect="none" points="97,348 97,99 " />
<polyline fill="none" vector-effect="none" points="675,348 675,99 " />
<polyline fill="none" vector-effect="none" points="97,348 102.78,348 " />
<polyline fill="none" vector-effect="none" points="669.22,348 675,348 " />
<polyline fill="none" vector-effect="none" points="97,298.2 102.78,298.2 " />
<polyline fill="none" vector-effect="none" points="669.22,298.2 675,298.2 " />
<polyline fill="none" vector-effect="none" points="97,248.4 102.78,248.4 " />
<polyline fill="none" vector-effect="none" points="669.22,248.4 675,248.4 " />
<polyline fill="none" vector-effect="none" points="97,198.6 102.78,198.6 " />
<polyline fill="none" vector-effect="none" points="669.22,198.6 675,198.6 " />
<polyline fill="none" vector-effect="none" points="97,148.8 102.78,148.8 " />
<polyline fill="none" vector-effect="none" points="669.22,148.8 675,148.8 " />
<polyline fill="none" vector-effect="none" points="97,99 102.78,99 " />
<polyline fill="none" vector-effect="none" points="669.22,99 675,99 " />
</g>

<g fill="#212121" fill-opacity="1" stroke="#212121" stroke-opacity="1" stroke-width="1" stroke-linecap="square" stroke-linejoin="bevel" transform="matrix(0.6,0,0,0.6,45.6,213.6)"
font-family="Helvetica" font-size="23" font-weight="400" font-style="normal" 
>
<text fill="#212121" fill-opacity="1" stroke="none" xml:space="preserve" x="0" y="0" font-family="Helvetica" font-size="23" font-weight="400" font-style="normal" 
 >0</text>
</g>

<g fill="#212121" fill-opacity="1" stroke="#212121" stroke-opacity="1" stroke-width="1" stroke-linecap="square" stroke-linejoin="bevel" transform="matrix(0.6,0,0,0.6,34.2,183.72)"
font-family="Helvetica" font-size="23" font-weight="400" font-style="normal" 
>
<text fill="#212121" fill-opacity="1" stroke="none" xml:space="preserve" x="0" y="0" font-family="Helvetica" font-size="23" font-weight="400" font-style="normal" 
 >0.2</text>
</g>

<g fill="#212121" fill-opacity="1" stroke="#212121" stroke-opacity="1" stroke-width="1" stroke-linecap="square" stroke-linejoin="bevel" transform="matrix(0.6,0,0,0.6,34.2,153.84)"
font-family="Helvetica" font-size="23" font-weight="400" font-style="normal" 
>
<text fill="#212121" fill-opacity="1" stroke="none" xml:space="preserve" x="0" y="0" font-family="Helvetica" font-size="23" font-weight="400" font-style="normal" 
 >0.4</text>
</g>

<g fill="#212121" fill-opacity="1" stroke="#212121" stroke-opacity="1" stroke-width="1" stroke-linecap="square" stroke-linejoin="bevel" transform="matrix(0.6,0,0,0.6,34.2,123.96)"
font-family="Helvetica" font-size="23" font-weight="400" font-style="normal" 
>
<text fill="#212121" fill-opacity="1" stroke="none" xml:space="preserve" x="0" y="0" font-family="Helvetica" font-size="23" font-weight="400" font-style="normal" 
 >0.6</text>
</g>

<g fill="#212121" fill-opacity="1" stroke="#212121" stroke-opacity="1" stroke-width="1" stroke-linecap="square" stroke-linejoin="bevel" transform="matrix(0.6,0,0,0.6,34.2,94.08)"
font-family="Helvetica" font-size="23" font-weight="400" font-style="normal" 
>
<text fill="#212121" fill-opacity="1" stroke="none" xml:space="preserve" x="0" y="0" font-family="Helvetica" font-size="23" font-weight="400" font-style="normal" 
 >0.8</text>
</g>

<g fill="#212121" fill-opacity="1" stroke="#212121" stroke-opacity="1" stroke-width="1" stroke-linecap="square" stroke-linejoin="bevel" transform="matrix(0.6,0,0,0.6,45.6,64.2)"
font-family="Helvetica" font-size="23" font-weight="400" font-style="normal" 
>
<text fill="#212121" fill-opacity="1" stroke="none" xml:space="preserve" x="0" y="0" font-family="Helvetica" font-size="23" font-weight="400" font-style="normal" 
 >1</text>
</g>

<g fill="none" stroke="#000000" stroke-opacity="1" stroke-width="3.33333" stroke-linecap="butt" stroke-linejoin="round" transform="matrix(0.6,0,0,0.6,0,0)"
font-family="Helvetica" font-size="23" font-weight="400" font-style="normal" 
>
<polyline fill="none" vector-effect="none" points="104.41,348 107.539,348 110.668,348 113.797,348 116.925,348 120.054,348 123.183,348 126.312,348 129.44,348 132.569,348 135.698,348 138.827,348 141.956,348 145.084,348 148.213,348 151.342,348 154.471,348 157.599,348 160.728,348 163.857,348 166.986,348 170.115,348 173.243,348 176.372,348 179.501,348 182.63,348 185.758,348 188.887,348 192.016,348 195.145,348 198.274,348 201.402,348 204.531,348 207.66,348 210.789,348 213.917,348 217.046,348 220.175,348 223.304,348 226.432,348 229.561,348 232.69,348 235.819,348 238.948,348 242.076,348 245.205,348 248.334,348 251.463,348 254.591,348 257.72,348 260.849,348 263.978,348 267.107,348 270.235,348 273.364,348 276.493,348 279.622,348 282.75,348 285.879,348 289.008,348 292.137,348 295.266,348 298.394,348 301.523,348 304.652,348 307.781,348 310.909,348 314.038,348 317.167,348 320.296,348 323.424,348 326.553,348 329.682,348 332.811,348 335.94,348 339.068,348 342.197,348 345.326,348 348.455,348 351.583,348 354.712,348 357.841,348 360.97,348 364.099,348 367.227,348 370.356,348 373.485,348 376.614,348 379.742,348 382.871,348 386,348 389.129,348 392.258,348 395.386,348 398.515,348 401.644,348 404.773,348 407.901,348 411.03,348 414.159,348 417.288,348 420.417,348 423.545,348 426.674,348 429.803,348 432.932,348 436.06,348 439.189,348 442.318,348 445.447,348 448.576,348 451.704,348 454.833,348 457.962,348 461.091,348 464.219,348 467.348,348 470.477,348 473.606,348 476.734,348 479.863,348 482.992,348 486.121,348 489.25,348 492.378,348 495.507,348 498.636,348 501.765,348 504.893,348 508.022,348 511.151,348 514.28,348 517.409,348 520.537,348 523.666,348 526.795,348 529.924,348 533.052,348 536.181,348 539.31,348 542.439,348 545.568,348 548.696,348 551.825,348 554.954,348 558.083,348 561.211,348 564.34,348 567.469,348 570.598,348 573.727,348 576.855,348 579.984,348 583.113,348 586.242,348 589.37,348 592.499,348 595.628,348 598.757,348 601.885,348 605.014,348 608.143,348 611.272,348 614.401,348 617.529,348 620.658,348 623.787,348 626.916,348 630.044,348 633.173,348 636.302,348 639.431,348 642.56,348 645.688,348 648.817,348 651.946,348 655.075,270.533 658.203,165.4 661.332,137.733 664.461,242.867 667.59,348 " />
</g>

<g fill="none" stroke="#000000" stroke-opacity="1" stroke-dasharray="12,12" stroke-dashoffset="0" stroke-width="3.33333" stroke-linecap="butt" stroke-linejoin="round" transform="matrix(0.6,0,0,0.6,0,0)"
font-family="Helvetica" font-size="23" font-weight="400" font-style="normal" 
>
<polyline fill="none" vector-effect="none" points="104.41,348 107.539,242.867 110.668,137.733 113.797,165.4 116.925,270.533 120.054,348 123.183,348 126.312,348 129.44,348 132.569,348 135.698,348 138.827,348 141.956,348 145.084,348 148.213,348 151.342,348 154.471,348 157.599,348 160.728,348 163.857,348 166.986,348 170.115,348 173.243,348 176.372,348 179.501,348 182.63,348 185.758,348 188.887,348 192.016,348 195.145,348 198.274,348 201.402,348 204.531,348 207.66,348 210.789,348 213.917,348 217.046,348 220.175,348 223.304,348 226.432,348 229.561,348 232.69,348 235.819,348 238.948,348 242.076,348 245.205,348 248.334,348 251.463,348 254.591,348 257.72,348 260.849,348 263.978,348 267.107,348 270.235,348 273.364,348 276.493,348 279.622,348 282.75,348 285.879,348 289.008,348 292.137,348 295.266,348 298.394,348 301.523,348 304.652,348 307.781,348 310.909,348 314.038,348 317.167,348 320.296,348 323.424,348 326.553,348 329.682,348 332.811,348 335.94,348 339.068,348 342.197,348 345.326,348 348.455,348 351.583,348 354.712,348 357.841,348 360.97,348 364.099,348 367.227,348 370.356,348 373.485,348 376.614,348 379.742,348 382.871,348 386,348 389.129,348 392.258,348 395.386,348 398.515,348 401.644,348 404.773,348 407.901,348 411.03,348 414.159,348 417.288,348 420.417,348 423.545,348 426.674,348 429.803,348 432.932,348 436.06,348 439.189,348 442.318,348 445.447,348 448.576,348 451.704,348 454.833,348 457.962,348 461.091,348 464.219,348 467.348,348 470.477,348 473.606,348 476.734,348 479.863,348 482.992,348 486.121,348 489.25,348 492.378,348 495.507,348 498.636,348 501.765,348 504.893,348 508.022,348 511.151,348 514.28,348 517.409,348 520.537,348 523.666,348 526.795,348 529.924,348 533.052,348 536.181,348 539.31,348 542.439,348 545.568,348 548.696,348 551.825,348 554.954,348 558.083,348 561.211,348 564.34,348 567.469,348 570.598,348 573.727,348 576.855,348 579.984,348 583.113,348 586.242,348 589.37,348 592.499,348 595.628,348 598.757,348 601.885,348 605.014,348 608.143,348 611.272,348 614.401,348 617.529,348 620.658,348 623.787,348 626.916,348 630.044,348 633.173,348 636.302,348 639.431,348 642.56,348 645.688,348 648.817,348 651.946,348 655.075,348 658.203,348 661.332,348 664.461,348 667.59,348 " />
</g>

<g fill="#ffffff" fill-opacity="1" stroke="none" transform="matrix(6e-05,0,0,6e-05,0,0)"
font-family="Helvetica" font-size="23" font-weight="400" font-style="normal" 
>
<path vector-effect="none" fill-rule="evenodd" d="M2.53e+06,300000 L2.53e+06,610000 L5.19e+06,610000 L5.19e+06,300000 L2.53e+06,300000"/>
</g>

<g fill="#000000" fill-opacity="1" stroke="#000000" stroke-opacity="1" stroke-width="3.33333" stroke-linecap="butt" stroke-linejoin="round" transform="matrix(0.6,0,0,0.6,0,0)"
font-family="Helvetica" font-size="23" font-weight="400" font-style="normal" 
>
<polyline fill="none" vector-effect="none" points="257.991,45.5 307.897,45.5 " />
</g>

<g fill="#000000" fill-opacity="1" stroke="#000000" stroke-opacity="1" stroke-dasharray="12,12" stroke-dashoffset="0" stroke-width="3.33333" stroke-linecap="butt" stroke-linejoin="round" transform="matrix(0.6,0,0,0.6,0,0)"
font-family="Helvetica" font-size="23" font-weight="400" font-style="normal" 
>
<polyline fill="none" vector-effect="none" points="367.535,45.5 417.441,45.5 " />
</g>

<g fill="#212121" fill-opacity="1" stroke="#212121" stroke-opacity="1" stroke-width="1" stroke-linecap="square" stroke-linejoin="bevel" transform="matrix(0.6,0,0,0.6,186.984,32.1)"
font-family="Helvetica" font-size="23" font-weight="400" font-style="normal" 
>
<text fill="#212121" fill-opacity="1" stroke="none" xml:space="preserve" x="0" y="0" font-family="Helvetica" font-size="23" font-weight="400" font-style="normal" 
 >zero</text>
</g>

<g fill="#212121" fill-opacity="1" stroke="#212121" stroke-opacity="1" stroke-width="1" stroke-linecap="square" stroke-linejoin="bevel" transform="matrix(0.6,0,0,0.6,252.71,32.1)"
font-family="Helvetica" font-size="23" font-weight="400" font-style="normal" 
>
<text fill="#212121" fill-opacity="1" stroke="none" xml:space="preserve" x="0" y="0" font-family="Helvetica" font-size="23" font-weight="400" font-style="normal" 
 >non-zero</text>
</g>

<g fill="none" stroke="#212121" stroke-opacity="1" stroke-width="0.833333" stroke-linecap="butt" stroke-linejoin="miter" stroke-miterlimit="5" transform="matrix(0.6,0,0,0.6,0,0)"
font-family="Helvetica" font-size="23" font-weight="400" font-style="normal" 
>
<path vector-effect="none" fill-rule="evenodd" d="M253,61 L253,30 L519,30 L519,61 L253,61"/>
</g>
</g>
</svg>
