<?xml version="1.0" encoding="UTF-8" standalone="no"?>
<svg width="254mm" height="122.061mm"
 viewBox="0 0 720 346"
 xmlns="http://www.w3.org/2000/svg" xmlns:xlink="http://www.w3.org/1999/xlink" version="1.1">
<title>Qt SVG Document</title>
<desc>MATLAB, The MathWorks, Inc. Version 26.1.0.3312084 R2026a Update 4</desc>
<defs>
</defs>
<g fill="none" stroke="black" stroke-width="1" fill-rule="evenodd" stroke-linecap="square" stroke-linejoin="bevel" >

<g fill="#ffffff" fill-opacity="1" stroke="none" transform="matrix(0.6,0,0,0.6,0,0)"
font-family="Segoe UI" font-size="9" font-weight="400" font-style="normal" 
>
<path vector-effect="none" fill-rule="evenodd" d="M0,0 L1201,0 L1201,577 L0,577 L0,0"/>
</g>

<g fill="#212121" fill-opacity="1" stroke="#212121" stroke-opacity="1" stroke-width="1" stroke-linecap="square" stroke-linejoin="bevel" transform="matrix(0.6,0,0,0.6,280.2,14.4)"
font-family="Helvetica" font-size="18" font-weight="400" font-style="normal" 
>
<text fill="#212121" fill-opacity="1" stroke="none" xml:space="preserve" x="0" y="0" font-family="Helvetica" font-size="18" font-weight="400" font-style="normal" 
 >PI controller - |K</text>
</g>

<g fill="#212121" fill-opacity="1" stroke="#212121" stroke-opacity="1" stroke-width="1" stroke-linecap="square" stroke-linejoin="bevel" transform="matrix(0.6,0,0,0.6,357.6,19.8)"
font-family="Helvetica" font-size="14" font-weight="400" font-style="normal" 
>
<text fill="#212121" fill-opacity="1" stroke="none" xml:space="preserve" x="0" y="0" font-family="Helvetica" font-size="14" font-weight="400" font-style="normal" 
 >p</text>
</g>

<g fill="#212121" fill-opacity="1" stroke="#212121" stroke-opacity="1" stroke-width="1" stroke-linecap="square" stroke-linejoin="bevel" transform="matrix(0.6,0,0,0.6,362.4,14.4)"
font-family="Helvetica" font-size="18" font-weight="400" font-style="normal" 
>
<text fill="#212121" fill-opacity="1" stroke="none" xml:space="preserve" x="0" y="0" font-family="Helvetica" font-size="18" font-weight="400" font-style="normal" 
 >| error versus gain</text>
</g>

<g fill="#ffffff" fill-opacity="1" stroke="none" transform="matrix(6e-05,0,0,6e-05,0,0)"
font-family="Helvetica" font-size="18" font-weight="400" font-style="normal" 
>
<path vector-effect="none" fill-rule="evenodd" d="M820000,690000 L820000,5.13e+06 L5.66e+06,5.13e+06 L5.66e+06,690000 L820000,690000"/>
</g>

<g fill="#212121" fill-opacity="0.14902" stroke="#212121" stroke-opacity="0.14902" stroke-width="0.833333" stroke-linecap="butt" stroke-linejoin="round" transform="matrix(0.6,0,0,0.6,0,0)"
font-family="Helvetica" font-size="18" font-weight="400" font-style="normal" 
>
<polyline fill="none" vector-effect="none" points="82,69 82,513 " />
<polyline fill="none" vector-effect="none" points="178.8,69 178.8,513 " />
<polyline fill="none" vector-effect="none" points="275.6,69 275.6,513 " />
<polyline fill="none" vector-effect="none" points="372.4,69 372.4,513 " />
<polyline fill="none" vector-effect="none" points="469.2,69 469.2,513 " />
<polyline fill="none" vector-effect="none" points="566,69 566,513 " />
<polyline fill="none" vector-effect="none" points="82,513 566,513 " />
<polyline fill="none" vector-effect="none" points="82,424.2 566,424.2 " />
<polyline fill="none" vector-effect="none" points="82,335.4 566,335.4 " />
<polyline fill="none" vector-effect="none" points="82,246.6 566,246.6 " />
<polyline fill="none" vector-effect="none" points="82,157.8 566,157.8 " />
<polyline fill="none" vector-effect="none" points="82,69 566,69 " />
</g>

<g fill="#212121" fill-opacity="1" stroke="#212121" stroke-opacity="1" stroke-width="1" stroke-linecap="square" stroke-linejoin="bevel" transform="matrix(0.6,0,0,0.6,162,334.8)"
font-family="Helvetica" font-size="17" font-weight="400" font-style="normal" 
>
<text fill="#212121" fill-opacity="1" stroke="none" xml:space="preserve" x="0" y="0" font-family="Helvetica" font-size="17" font-weight="400" font-style="normal" 
 >|K</text>
</g>

<g fill="#212121" fill-opacity="1" stroke="#212121" stroke-opacity="1" stroke-width="1" stroke-linecap="square" stroke-linejoin="bevel" transform="matrix(0.6,0,0,0.6,171,339.6)"
font-family="Helvetica" font-size="13" font-weight="400" font-style="normal" 
>
<text fill="#212121" fill-opacity="1" stroke="none" xml:space="preserve" x="0" y="0" font-family="Helvetica" font-size="13" font-weight="400" font-style="normal" 
 >p</text>
</g>

<g fill="#212121" fill-opacity="1" stroke="#212121" stroke-opacity="1" stroke-width="1" stroke-linecap="square" stroke-linejoin="bevel" transform="matrix(0.6,0,0,0.6,175.2,334.8)"
font-family="Helvetica" font-size="17" font-weight="400" font-style="normal" 
>
<text fill="#212121" fill-opacity="1" stroke="none" xml:space="preserve" x="0" y="0" font-family="Helvetica" font-size="17" font-weight="400" font-style="normal" 
 >| magnitude</text>
</g>

<g fill="#212121" fill-opacity="1" stroke="#212121" stroke-opacity="1" stroke-width="0.833333" stroke-linecap="square" stroke-linejoin="round" transform="matrix(0.6,0,0,0.6,0,0)"
font-family="Helvetica" font-size="17" font-weight="400" font-style="normal" 
>
<polyline fill="none" vector-effect="none" points="82,513 566,513 " />
<polyline fill="none" vector-effect="none" points="82,513 82,508.16 " />
<polyline fill="none" vector-effect="none" points="178.8,513 178.8,508.16 " />
<polyline fill="none" vector-effect="none" points="275.6,513 275.6,508.16 " />
<polyline fill="none" vector-effect="none" points="372.4,513 372.4,508.16 " />
<polyline fill="none" vector-effect="none" points="469.2,513 469.2,508.16 " />
<polyline fill="none" vector-effect="none" points="566,513 566,508.16 " />
</g>

<g fill="#212121" fill-opacity="1" stroke="#212121" stroke-opacity="1" stroke-width="1" stroke-linecap="square" stroke-linejoin="bevel" transform="matrix(0.6,0,0,0.6,46.2,321.6)"
font-family="Helvetica" font-size="18" font-weight="400" font-style="normal" 
>
<text fill="#212121" fill-opacity="1" stroke="none" xml:space="preserve" x="0" y="0" font-family="Helvetica" font-size="18" font-weight="400" font-style="normal" 
 >0</text>
</g>

<g fill="#212121" fill-opacity="1" stroke="#212121" stroke-opacity="1" stroke-width="1" stroke-linecap="square" stroke-linejoin="bevel" transform="matrix(0.6,0,0,0.6,101.28,321.6)"
font-family="Helvetica" font-size="18" font-weight="400" font-style="normal" 
>
<text fill="#212121" fill-opacity="1" stroke="none" xml:space="preserve" x="0" y="0" font-family="Helvetica" font-size="18" font-weight="400" font-style="normal" 
 >20</text>
</g>

<g fill="#212121" fill-opacity="1" stroke="#212121" stroke-opacity="1" stroke-width="1" stroke-linecap="square" stroke-linejoin="bevel" transform="matrix(0.6,0,0,0.6,159.36,321.6)"
font-family="Helvetica" font-size="18" font-weight="400" font-style="normal" 
>
<text fill="#212121" fill-opacity="1" stroke="none" xml:space="preserve" x="0" y="0" font-family="Helvetica" font-size="18" font-weight="400" font-style="normal" 
 >40</text>
</g>

<g fill="#212121" fill-opacity="1" stroke="#212121" stroke-opacity="1" stroke-width="1" stroke-linecap="square" stroke-linejoin="bevel" transform="matrix(0.6,0,0,0.6,217.44,321.6)"
font-family="Helvetica" font-size="18" font-weight="400" font-style="normal" 
>
<text fill="#212121" fill-opacity="1" stroke="none" xml:space="preserve" x="0" y="0" font-family="Helvetica" font-size="18" font-weight="400" font-style="normal" 
 >60</text>
</g>

<g fill="#212121" fill-opacity="1" stroke="#212121" stroke-opacity="1" stroke-width="1" stroke-linecap="square" stroke-linejoin="bevel" transform="matrix(0.6,0,0,0.6,275.52,321.6)"
font-family="Helvetica" font-size="18" font-weight="400" font-style="normal" 
>
<text fill="#212121" fill-opacity="1" stroke="none" xml:space="preserve" x="0" y="0" font-family="Helvetica" font-size="18" font-weight="400" font-style="normal" 
 >80</text>
</g>

<g fill="#212121" fill-opacity="1" stroke="#212121" stroke-opacity="1" stroke-width="1" stroke-linecap="square" stroke-linejoin="bevel" transform="matrix(0.6,0,0,0.6,330.6,321.6)"
font-family="Helvetica" font-size="18" font-weight="400" font-style="normal" 
>
<text fill="#212121" fill-opacity="1" stroke="none" xml:space="preserve" x="0" y="0" font-family="Helvetica" font-size="18" font-weight="400" font-style="normal" 
 >100</text>
</g>

<g fill="#212121" fill-opacity="1" stroke="#212121" stroke-opacity="1" stroke-width="1" stroke-linecap="square" stroke-linejoin="bevel" transform="matrix(0,-0.6,0.6,0,15,191.7)"
font-family="Helvetica" font-size="20" font-weight="400" font-style="normal" 
>
<text fill="#212121" fill-opacity="1" stroke="none" xml:space="preserve" x="0" y="0" font-family="Helvetica" font-size="20" font-weight="400" font-style="normal" 
 >RMSE</text>
</g>

<g fill="#212121" fill-opacity="1" stroke="#212121" stroke-opacity="1" stroke-width="0.833333" stroke-linecap="square" stroke-linejoin="round" transform="matrix(0.6,0,0,0.6,0,0)"
font-family="Helvetica" font-size="20" font-weight="400" font-style="normal" 
>
<polyline fill="none" vector-effect="none" points="82,513 82,69 " />
<polyline fill="none" vector-effect="none" points="82,513 86.84,513 " />
<polyline fill="none" vector-effect="none" points="82,424.2 86.84,424.2 " />
<polyline fill="none" vector-effect="none" points="82,335.4 86.84,335.4 " />
<polyline fill="none" vector-effect="none" points="82,246.6 86.84,246.6 " />
<polyline fill="none" vector-effect="none" points="82,157.8 86.84,157.8 " />
<polyline fill="none" vector-effect="none" points="82,69 86.84,69 " />
</g>

<g fill="#212121" fill-opacity="1" stroke="#212121" stroke-opacity="1" stroke-width="1" stroke-linecap="square" stroke-linejoin="bevel" transform="matrix(0.6,0,0,0.6,39,311.4)"
font-family="Helvetica" font-size="18" font-weight="400" font-style="normal" 
>
<text fill="#212121" fill-opacity="1" stroke="none" xml:space="preserve" x="0" y="0" font-family="Helvetica" font-size="18" font-weight="400" font-style="normal" 
 >0</text>
</g>

<g fill="#212121" fill-opacity="1" stroke="#212121" stroke-opacity="1" stroke-width="1" stroke-linecap="square" stroke-linejoin="bevel" transform="matrix(0.6,0,0,0.6,27,258.12)"
font-family="Helvetica" font-size="18" font-weight="400" font-style="normal" 
>
<text fill="#212121" fill-opacity="1" stroke="none" xml:space="preserve" x="0" y="0" font-family="Helvetica" font-size="18" font-weight="400" font-style="normal" 
 >500</text>
</g>

<g fill="#212121" fill-opacity="1" stroke="#212121" stroke-opacity="1" stroke-width="1" stroke-linecap="square" stroke-linejoin="bevel" transform="matrix(0.6,0,0,0.6,21,204.84)"
font-family="Helvetica" font-size="18" font-weight="400" font-style="normal" 
>
<text fill="#212121" fill-opacity="1" stroke="none" xml:space="preserve" x="0" y="0" font-family="Helvetica" font-size="18" font-weight="400" font-style="normal" 
 >1000</text>
</g>

<g fill="#212121" fill-opacity="1" stroke="#212121" stroke-opacity="1" stroke-width="1" stroke-linecap="square" stroke-linejoin="bevel" transform="matrix(0.6,0,0,0.6,21,151.56)"
font-family="Helvetica" font-size="18" font-weight="400" font-style="normal" 
>
<text fill="#212121" fill-opacity="1" stroke="none" xml:space="preserve" x="0" y="0" font-family="Helvetica" font-size="18" font-weight="400" font-style="normal" 
 >1500</text>
</g>

<g fill="#212121" fill-opacity="1" stroke="#212121" stroke-opacity="1" stroke-width="1" stroke-linecap="square" stroke-linejoin="bevel" transform="matrix(0.6,0,0,0.6,21,98.28)"
font-family="Helvetica" font-size="18" font-weight="400" font-style="normal" 
>
<text fill="#212121" fill-opacity="1" stroke="none" xml:space="preserve" x="0" y="0" font-family="Helvetica" font-size="18" font-weight="400" font-style="normal" 
 >2000</text>
</g>

<g fill="#212121" fill-opacity="1" stroke="#212121" stroke-opacity="1" stroke-width="1" stroke-linecap="square" stroke-linejoin="bevel" transform="matrix(0.6,0,0,0.6,21,45)"
font-family="Helvetica" font-size="18" font-weight="400" font-style="normal" 
>
<text fill="#212121" fill-opacity="1" stroke="none" xml:space="preserve" x="0" y="0" font-family="Helvetica" font-size="18" font-weight="400" font-style="normal" 
 >2500</text>
</g>

<g fill="#212121" fill-opacity="1" stroke="#212121" stroke-opacity="1" stroke-width="1" stroke-linecap="square" stroke-linejoin="bevel" transform="matrix(0.6,0,0,0.6,129.9,37.185)"
font-family="Helvetica" font-size="20" font-weight="400" font-style="normal" 
>
<text fill="#212121" fill-opacity="1" stroke="none" xml:space="preserve" x="0" y="0" font-family="Helvetica" font-size="20" font-weight="400" font-style="normal" 
 >Base-10 logarithmic grid</text>
</g>

<g fill="none" stroke="#1171be" stroke-opacity="1" stroke-width="2.5" stroke-linecap="butt" stroke-linejoin="round" transform="matrix(0.6,0,0,0.6,0,0)"
font-family="Helvetica" font-size="20" font-weight="400" font-style="normal" 
>
<polyline fill="none" vector-effect="none" points="82.484,512.365 86.84,512.644 130.4,512.096 566,75.8933 " />
</g>

<g fill="none" stroke="#1171be" stroke-opacity="1" stroke-width="2.5" stroke-linecap="butt" stroke-linejoin="miter" stroke-miterlimit="5" transform="matrix(0.6,0,0,0.6,0,0)"
font-family="Helvetica" font-size="20" font-weight="400" font-style="normal" 
>
<path vector-effect="none" fill-rule="evenodd" d="M87.484,512.365 C87.484,509.603 85.2454,507.365 82.484,507.365 C79.7226,507.365 77.484,509.603 77.484,512.365 C77.484,515.126 79.7226,517.365 82.484,517.365 C85.2454,517.365 87.484,515.126 87.484,512.365 "/>
<path vector-effect="none" fill-rule="evenodd" d="M91.84,512.644 C91.84,509.883 89.6014,507.644 86.84,507.644 C84.0786,507.644 81.84,509.883 81.84,512.644 C81.84,515.406 84.0786,517.644 86.84,517.644 C89.6014,517.644 91.84,515.406 91.84,512.644 "/>
<path vector-effect="none" fill-rule="evenodd" d="M135.4,512.096 C135.4,509.334 133.161,507.096 130.4,507.096 C127.639,507.096 125.4,509.334 125.4,512.096 C125.4,514.857 127.639,517.096 130.4,517.096 C133.161,517.096 135.4,514.857 135.4,512.096 "/>
<path vector-effect="none" fill-rule="evenodd" d="M571,75.8933 C571,73.1319 568.761,70.8933 566,70.8933 C563.239,70.8933 561,73.1319 561,75.8933 C561,78.6547 563.239,80.8933 566,80.8933 C568.761,80.8933 571,78.6547 571,75.8933 "/>
</g>

<g fill="none" stroke="#dd5400" stroke-opacity="1" stroke-width="2.5" stroke-linecap="butt" stroke-linejoin="round" transform="matrix(0.6,0,0,0.6,0,0)"
font-family="Helvetica" font-size="20" font-weight="400" font-style="normal" 
>
<polyline fill="none" vector-effect="none" points="82.484,509.881 86.84,511.814 130.4,511.878 566,373.794 " />
</g>

<g fill="none" stroke="#dd5400" stroke-opacity="1" stroke-width="2.5" stroke-linecap="butt" stroke-linejoin="miter" stroke-miterlimit="5" transform="matrix(0.6,0,0,0.6,0,0)"
font-family="Helvetica" font-size="20" font-weight="400" font-style="normal" 
>
<path vector-effect="none" fill-rule="evenodd" d="M78.584,505.981 L78.584,513.781 L86.384,513.781 L86.384,505.981 L78.584,505.981"/>
<path vector-effect="none" fill-rule="evenodd" d="M82.94,507.914 L82.94,515.714 L90.74,515.714 L90.74,507.914 L82.94,507.914"/>
<path vector-effect="none" fill-rule="evenodd" d="M126.5,507.978 L126.5,515.778 L134.3,515.778 L134.3,507.978 L126.5,507.978"/>
<path vector-effect="none" fill-rule="evenodd" d="M562.1,369.894 L562.1,377.694 L569.9,377.694 L569.9,369.894 L562.1,369.894"/>
</g>

<g fill="none" stroke="#edb120" stroke-opacity="1" stroke-dasharray="8,8" stroke-dashoffset="0" stroke-width="2.5" stroke-linecap="butt" stroke-linejoin="round" transform="matrix(0.6,0,0,0.6,0,0)"
font-family="Helvetica" font-size="20" font-weight="400" font-style="normal" 
>
<polyline fill="none" vector-effect="none" points="82.484,512.365 86.84,512.644 130.4,512.096 566,75.8933 " />
</g>

<g fill="none" stroke="#edb120" stroke-opacity="1" stroke-width="2.5" stroke-linecap="butt" stroke-linejoin="miter" stroke-miterlimit="5" transform="matrix(0.6,0,0,0.6,0,0)"
font-family="Helvetica" font-size="20" font-weight="400" font-style="normal" 
>
<path vector-effect="none" fill-rule="evenodd" d="M82.484,505.715 L76.7251,515.69 L88.2429,515.69 L82.484,505.715"/>
<path vector-effect="none" fill-rule="evenodd" d="M86.84,505.994 L81.0811,515.969 L92.5989,515.969 L86.84,505.994"/>
<path vector-effect="none" fill-rule="evenodd" d="M130.4,505.446 L124.641,515.421 L136.159,515.421 L130.4,505.446"/>
<path vector-effect="none" fill-rule="evenodd" d="M566,69.2433 L560.241,79.2183 L571.759,79.2183 L566,69.2433"/>
</g>

<g fill="#bf1a1a" fill-opacity="0.701961" stroke="#bf1a1a" stroke-opacity="0.701961" stroke-dasharray="10,6" stroke-dashoffset="0" stroke-width="0.833333" stroke-linecap="butt" stroke-linejoin="round" transform="matrix(0.6,0,0,0.6,0,0)"
font-family="Helvetica" font-size="20" font-weight="400" font-style="normal" 
>
<polyline fill="none" vector-effect="none" points="100.256,513 100.256,69 " />
</g>

<g fill="#bf1a1a" fill-opacity="1" stroke="#bf1a1a" stroke-opacity="1" stroke-width="1" stroke-linecap="square" stroke-linejoin="bevel" transform="matrix(0,-0.6,0.6,0,70.0039,82.1896)"
font-family="Helvetica" font-size="16" font-weight="400" font-style="normal" 
>
<text fill="#bf1a1a" fill-opacity="1" stroke="none" xml:space="preserve" x="0" y="0" font-family="Helvetica" font-size="16" font-weight="400" font-style="normal" 
 >Selected</text>
</g>

<g fill="#ffffff" fill-opacity="1" stroke="none" transform="matrix(6e-05,0,0,6e-05,0,0)"
font-family="Helvetica" font-size="16" font-weight="400" font-style="normal" 
>
<path vector-effect="none" fill-rule="evenodd" d="M3.49e+06,2.25e+06 L3.49e+06,2.82e+06 L5.4e+06,2.82e+06 L5.4e+06,2.25e+06 L3.49e+06,2.25e+06"/>
</g>

<g fill="#1171be" fill-opacity="1" stroke="#1171be" stroke-opacity="1" stroke-width="2.5" stroke-linecap="butt" stroke-linejoin="round" transform="matrix(0.6,0,0,0.6,0,0)"
font-family="Helvetica" font-size="16" font-weight="400" font-style="normal" 
>
<polyline fill="none" vector-effect="none" points="354.007,235.952 404.072,235.952 " />
</g>

<g fill="none" stroke="#1171be" stroke-opacity="1" stroke-width="2.5" stroke-linecap="butt" stroke-linejoin="miter" stroke-miterlimit="5" transform="matrix(0.6,0,0,0.6,0,0)"
font-family="Helvetica" font-size="16" font-weight="400" font-style="normal" 
>
<path vector-effect="none" fill-rule="evenodd" d="M384.039,235.952 C384.039,233.191 381.801,230.952 379.039,230.952 C376.278,230.952 374.039,233.191 374.039,235.952 C374.039,238.713 376.278,240.952 379.039,240.952 C381.801,240.952 384.039,238.713 384.039,235.952 "/>
</g>

<g fill="#dd5400" fill-opacity="1" stroke="#dd5400" stroke-opacity="1" stroke-width="2.5" stroke-linecap="butt" stroke-linejoin="round" transform="matrix(0.6,0,0,0.6,0,0)"
font-family="Helvetica" font-size="16" font-weight="400" font-style="normal" 
>
<polyline fill="none" vector-effect="none" points="354.007,253.5 404.072,253.5 " />
</g>

<g fill="none" stroke="#dd5400" stroke-opacity="1" stroke-width="2.5" stroke-linecap="butt" stroke-linejoin="miter" stroke-miterlimit="5" transform="matrix(0.6,0,0,0.6,0,0)"
font-family="Helvetica" font-size="16" font-weight="400" font-style="normal" 
>
<path vector-effect="none" fill-rule="evenodd" d="M375.139,249.6 L375.139,257.4 L382.939,257.4 L382.939,249.6 L375.139,249.6"/>
</g>

<g fill="#edb120" fill-opacity="1" stroke="#edb120" stroke-opacity="1" stroke-dasharray="8,8" stroke-dashoffset="0" stroke-width="2.5" stroke-linecap="butt" stroke-linejoin="round" transform="matrix(0.6,0,0,0.6,0,0)"
font-family="Helvetica" font-size="16" font-weight="400" font-style="normal" 
>
<polyline fill="none" vector-effect="none" points="354.007,271.048 404.072,271.048 " />
</g>

<g fill="none" stroke="#edb120" stroke-opacity="1" stroke-width="2.5" stroke-linecap="butt" stroke-linejoin="miter" stroke-miterlimit="5" transform="matrix(0.6,0,0,0.6,0,0)"
font-family="Helvetica" font-size="16" font-weight="400" font-style="normal" 
>
<path vector-effect="none" fill-rule="evenodd" d="M379.039,264.398 L373.28,274.373 L384.798,274.373 L379.039,264.398"/>
</g>

<g fill="#212121" fill-opacity="1" stroke="#212121" stroke-opacity="1" stroke-width="1" stroke-linecap="square" stroke-linejoin="bevel" transform="matrix(0.6,0,0,0.6,244.696,144.871)"
font-family="Helvetica" font-size="15" font-weight="400" font-style="normal" 
>
<text fill="#212121" fill-opacity="1" stroke="none" xml:space="preserve" x="0" y="0" font-family="Helvetica" font-size="15" font-weight="400" font-style="normal" 
 >Roll RMSE (mrad)</text>
</g>

<g fill="#212121" fill-opacity="1" stroke="#212121" stroke-opacity="1" stroke-width="1" stroke-linecap="square" stroke-linejoin="bevel" transform="matrix(0.6,0,0,0.6,244.696,155.4)"
font-family="Helvetica" font-size="15" font-weight="400" font-style="normal" 
>
<text fill="#212121" fill-opacity="1" stroke="none" xml:space="preserve" x="0" y="0" font-family="Helvetica" font-size="15" font-weight="400" font-style="normal" 
 >Depth RMSE (mm)</text>
</g>

<g fill="#212121" fill-opacity="1" stroke="#212121" stroke-opacity="1" stroke-width="1" stroke-linecap="square" stroke-linejoin="bevel" transform="matrix(0.6,0,0,0.6,244.696,165.929)"
font-family="Helvetica" font-size="15" font-weight="400" font-style="normal" 
>
<text fill="#212121" fill-opacity="1" stroke="none" xml:space="preserve" x="0" y="0" font-family="Helvetica" font-size="15" font-weight="400" font-style="normal" 
 >Yaw RMSE (mrad)</text>
</g>

<g fill="none" stroke="#212121" stroke-opacity="1" stroke-width="0.833333" stroke-linecap="butt" stroke-linejoin="miter" stroke-miterlimit="5" transform="matrix(0.6,0,0,0.6,0,0)"
font-family="Helvetica" font-size="15" font-weight="400" font-style="normal" 
>
<path vector-effect="none" fill-rule="evenodd" d="M349,282 L349,225 L540,225 L540,282 L349,282"/>
</g>

<g fill="#ffffff" fill-opacity="1" stroke="none" transform="matrix(6e-05,0,0,6e-05,0,0)"
font-family="Helvetica" font-size="15" font-weight="400" font-style="normal" 
>
<path vector-effect="none" fill-rule="evenodd" d="M6.5e+06,690000 L6.5e+06,5.13e+06 L1.134e+07,5.13e+06 L1.134e+07,690000 L6.5e+06,690000"/>
</g>

<g fill="#212121" fill-opacity="0.14902" stroke="#212121" stroke-opacity="0.14902" stroke-width="0.833333" stroke-linecap="butt" stroke-linejoin="round" transform="matrix(0.6,0,0,0.6,0,0)"
font-family="Helvetica" font-size="15" font-weight="400" font-style="normal" 
>
<polyline fill="none" vector-effect="none" points="650,69 650,513 " />
<polyline fill="none" vector-effect="none" points="771,69 771,513 " />
<polyline fill="none" vector-effect="none" points="892,69 892,513 " />
<polyline fill="none" vector-effect="none" points="1013,69 1013,513 " />
<polyline fill="none" vector-effect="none" points="1134,69 1134,513 " />
<polyline fill="none" vector-effect="none" points="650,513 1134,513 " />
<polyline fill="none" vector-effect="none" points="650,468.6 1134,468.6 " />
<polyline fill="none" vector-effect="none" points="650,424.2 1134,424.2 " />
<polyline fill="none" vector-effect="none" points="650,379.8 1134,379.8 " />
<polyline fill="none" vector-effect="none" points="650,335.4 1134,335.4 " />
<polyline fill="none" vector-effect="none" points="650,291 1134,291 " />
<polyline fill="none" vector-effect="none" points="650,246.6 1134,246.6 " />
<polyline fill="none" vector-effect="none" points="650,202.2 1134,202.2 " />
<polyline fill="none" vector-effect="none" points="650,157.8 1134,157.8 " />
<polyline fill="none" vector-effect="none" points="650,113.4 1134,113.4 " />
<polyline fill="none" vector-effect="none" points="650,69 1134,69 " />
</g>

<g fill="#212121" fill-opacity="1" stroke="#212121" stroke-opacity="1" stroke-width="1" stroke-linecap="square" stroke-linejoin="bevel" transform="matrix(0.6,0,0,0.6,502.8,334.8)"
font-family="Helvetica" font-size="17" font-weight="400" font-style="normal" 
>
<text fill="#212121" fill-opacity="1" stroke="none" xml:space="preserve" x="0" y="0" font-family="Helvetica" font-size="17" font-weight="400" font-style="normal" 
 >|K</text>
</g>

<g fill="#212121" fill-opacity="1" stroke="#212121" stroke-opacity="1" stroke-width="1" stroke-linecap="square" stroke-linejoin="bevel" transform="matrix(0.6,0,0,0.6,511.8,339.6)"
font-family="Helvetica" font-size="13" font-weight="400" font-style="normal" 
>
<text fill="#212121" fill-opacity="1" stroke="none" xml:space="preserve" x="0" y="0" font-family="Helvetica" font-size="13" font-weight="400" font-style="normal" 
 >p</text>
</g>

<g fill="#212121" fill-opacity="1" stroke="#212121" stroke-opacity="1" stroke-width="1" stroke-linecap="square" stroke-linejoin="bevel" transform="matrix(0.6,0,0,0.6,516,334.8)"
font-family="Helvetica" font-size="17" font-weight="400" font-style="normal" 
>
<text fill="#212121" fill-opacity="1" stroke="none" xml:space="preserve" x="0" y="0" font-family="Helvetica" font-size="17" font-weight="400" font-style="normal" 
 >| magnitude</text>
</g>

<g fill="#212121" fill-opacity="1" stroke="#212121" stroke-opacity="1" stroke-width="0.833333" stroke-linecap="square" stroke-linejoin="round" transform="matrix(0.6,0,0,0.6,0,0)"
font-family="Helvetica" font-size="17" font-weight="400" font-style="normal" 
>
<polyline fill="none" vector-effect="none" points="650,513 1134,513 " />
<polyline fill="none" vector-effect="none" points="650,513 650,508.16 " />
<polyline fill="none" vector-effect="none" points="771,513 771,508.16 " />
<polyline fill="none" vector-effect="none" points="892,513 892,508.16 " />
<polyline fill="none" vector-effect="none" points="1013,513 1013,508.16 " />
<polyline fill="none" vector-effect="none" points="1134,513 1134,508.16 " />
</g>

<g fill="#212121" fill-opacity="1" stroke="#212121" stroke-opacity="1" stroke-width="1" stroke-linecap="square" stroke-linejoin="bevel" transform="matrix(0.6,0,0,0.6,387,321.6)"
font-family="Helvetica" font-size="18" font-weight="400" font-style="normal" 
>
<text fill="#212121" fill-opacity="1" stroke="none" xml:space="preserve" x="0" y="0" font-family="Helvetica" font-size="18" font-weight="400" font-style="normal" 
 >1</text>
</g>

<g fill="#212121" fill-opacity="1" stroke="#212121" stroke-opacity="1" stroke-width="1" stroke-linecap="square" stroke-linejoin="bevel" transform="matrix(0.6,0,0,0.6,459.6,321.6)"
font-family="Helvetica" font-size="18" font-weight="400" font-style="normal" 
>
<text fill="#212121" fill-opacity="1" stroke="none" xml:space="preserve" x="0" y="0" font-family="Helvetica" font-size="18" font-weight="400" font-style="normal" 
 >2</text>
</g>

<g fill="#212121" fill-opacity="1" stroke="#212121" stroke-opacity="1" stroke-width="1" stroke-linecap="square" stroke-linejoin="bevel" transform="matrix(0.6,0,0,0.6,532.2,321.6)"
font-family="Helvetica" font-size="18" font-weight="400" font-style="normal" 
>
<text fill="#212121" fill-opacity="1" stroke="none" xml:space="preserve" x="0" y="0" font-family="Helvetica" font-size="18" font-weight="400" font-style="normal" 
 >3</text>
</g>

<g fill="#212121" fill-opacity="1" stroke="#212121" stroke-opacity="1" stroke-width="1" stroke-linecap="square" stroke-linejoin="bevel" transform="matrix(0.6,0,0,0.6,604.8,321.6)"
font-family="Helvetica" font-size="18" font-weight="400" font-style="normal" 
>
<text fill="#212121" fill-opacity="1" stroke="none" xml:space="preserve" x="0" y="0" font-family="Helvetica" font-size="18" font-weight="400" font-style="normal" 
 >4</text>
</g>

<g fill="#212121" fill-opacity="1" stroke="#212121" stroke-opacity="1" stroke-width="1" stroke-linecap="square" stroke-linejoin="bevel" transform="matrix(0.6,0,0,0.6,677.4,321.6)"
font-family="Helvetica" font-size="18" font-weight="400" font-style="normal" 
>
<text fill="#212121" fill-opacity="1" stroke="none" xml:space="preserve" x="0" y="0" font-family="Helvetica" font-size="18" font-weight="400" font-style="normal" 
 >5</text>
</g>

<g fill="#212121" fill-opacity="1" stroke="#212121" stroke-opacity="1" stroke-width="1" stroke-linecap="square" stroke-linejoin="bevel" transform="matrix(0,-0.6,0.6,0,364.8,191.7)"
font-family="Helvetica" font-size="20" font-weight="400" font-style="normal" 
>
<text fill="#212121" fill-opacity="1" stroke="none" xml:space="preserve" x="0" y="0" font-family="Helvetica" font-size="20" font-weight="400" font-style="normal" 
 >RMSE</text>
</g>

<g fill="#212121" fill-opacity="1" stroke="#212121" stroke-opacity="1" stroke-width="0.833333" stroke-linecap="square" stroke-linejoin="round" transform="matrix(0.6,0,0,0.6,0,0)"
font-family="Helvetica" font-size="20" font-weight="400" font-style="normal" 
>
<polyline fill="none" vector-effect="none" points="650,513 650,69 " />
<polyline fill="none" vector-effect="none" points="650,513 654.84,513 " />
<polyline fill="none" vector-effect="none" points="650,468.6 654.84,468.6 " />
<polyline fill="none" vector-effect="none" points="650,424.2 654.84,424.2 " />
<polyline fill="none" vector-effect="none" points="650,379.8 654.84,379.8 " />
<polyline fill="none" vector-effect="none" points="650,335.4 654.84,335.4 " />
<polyline fill="none" vector-effect="none" points="650,291 654.84,291 " />
<polyline fill="none" vector-effect="none" points="650,246.6 654.84,246.6 " />
<polyline fill="none" vector-effect="none" points="650,202.2 654.84,202.2 " />
<polyline fill="none" vector-effect="none" points="650,157.8 654.84,157.8 " />
<polyline fill="none" vector-effect="none" points="650,113.4 654.84,113.4 " />
<polyline fill="none" vector-effect="none" points="650,69 654.84,69 " />
</g>

<g fill="#212121" fill-opacity="1" stroke="#212121" stroke-opacity="1" stroke-width="1" stroke-linecap="square" stroke-linejoin="bevel" transform="matrix(0.6,0,0,0.6,379.8,311.4)"
font-family="Helvetica" font-size="18" font-weight="400" font-style="normal" 
>
<text fill="#212121" fill-opacity="1" stroke="none" xml:space="preserve" x="0" y="0" font-family="Helvetica" font-size="18" font-weight="400" font-style="normal" 
 >2</text>
</g>

<g fill="#212121" fill-opacity="1" stroke="#212121" stroke-opacity="1" stroke-width="1" stroke-linecap="square" stroke-linejoin="bevel" transform="matrix(0.6,0,0,0.6,370.8,284.76)"
font-family="Helvetica" font-size="18" font-weight="400" font-style="normal" 
>
<text fill="#212121" fill-opacity="1" stroke="none" xml:space="preserve" x="0" y="0" font-family="Helvetica" font-size="18" font-weight="400" font-style="normal" 
 >2.5</text>
</g>

<g fill="#212121" fill-opacity="1" stroke="#212121" stroke-opacity="1" stroke-width="1" stroke-linecap="square" stroke-linejoin="bevel" transform="matrix(0.6,0,0,0.6,379.8,258.12)"
font-family="Helvetica" font-size="18" font-weight="400" font-style="normal" 
>
<text fill="#212121" fill-opacity="1" stroke="none" xml:space="preserve" x="0" y="0" font-family="Helvetica" font-size="18" font-weight="400" font-style="normal" 
 >3</text>
</g>

<g fill="#212121" fill-opacity="1" stroke="#212121" stroke-opacity="1" stroke-width="1" stroke-linecap="square" stroke-linejoin="bevel" transform="matrix(0.6,0,0,0.6,370.8,231.48)"
font-family="Helvetica" font-size="18" font-weight="400" font-style="normal" 
>
<text fill="#212121" fill-opacity="1" stroke="none" xml:space="preserve" x="0" y="0" font-family="Helvetica" font-size="18" font-weight="400" font-style="normal" 
 >3.5</text>
</g>

<g fill="#212121" fill-opacity="1" stroke="#212121" stroke-opacity="1" stroke-width="1" stroke-linecap="square" stroke-linejoin="bevel" transform="matrix(0.6,0,0,0.6,379.8,204.84)"
font-family="Helvetica" font-size="18" font-weight="400" font-style="normal" 
>
<text fill="#212121" fill-opacity="1" stroke="none" xml:space="preserve" x="0" y="0" font-family="Helvetica" font-size="18" font-weight="400" font-style="normal" 
 >4</text>
</g>

<g fill="#212121" fill-opacity="1" stroke="#212121" stroke-opacity="1" stroke-width="1" stroke-linecap="square" stroke-linejoin="bevel" transform="matrix(0.6,0,0,0.6,370.8,178.2)"
font-family="Helvetica" font-size="18" font-weight="400" font-style="normal" 
>
<text fill="#212121" fill-opacity="1" stroke="none" xml:space="preserve" x="0" y="0" font-family="Helvetica" font-size="18" font-weight="400" font-style="normal" 
 >4.5</text>
</g>

<g fill="#212121" fill-opacity="1" stroke="#212121" stroke-opacity="1" stroke-width="1" stroke-linecap="square" stroke-linejoin="bevel" transform="matrix(0.6,0,0,0.6,379.8,151.56)"
font-family="Helvetica" font-size="18" font-weight="400" font-style="normal" 
>
<text fill="#212121" fill-opacity="1" stroke="none" xml:space="preserve" x="0" y="0" font-family="Helvetica" font-size="18" font-weight="400" font-style="normal" 
 >5</text>
</g>

<g fill="#212121" fill-opacity="1" stroke="#212121" stroke-opacity="1" stroke-width="1" stroke-linecap="square" stroke-linejoin="bevel" transform="matrix(0.6,0,0,0.6,370.8,124.92)"
font-family="Helvetica" font-size="18" font-weight="400" font-style="normal" 
>
<text fill="#212121" fill-opacity="1" stroke="none" xml:space="preserve" x="0" y="0" font-family="Helvetica" font-size="18" font-weight="400" font-style="normal" 
 >5.5</text>
</g>

<g fill="#212121" fill-opacity="1" stroke="#212121" stroke-opacity="1" stroke-width="1" stroke-linecap="square" stroke-linejoin="bevel" transform="matrix(0.6,0,0,0.6,379.8,98.28)"
font-family="Helvetica" font-size="18" font-weight="400" font-style="normal" 
>
<text fill="#212121" fill-opacity="1" stroke="none" xml:space="preserve" x="0" y="0" font-family="Helvetica" font-size="18" font-weight="400" font-style="normal" 
 >6</text>
</g>

<g fill="#212121" fill-opacity="1" stroke="#212121" stroke-opacity="1" stroke-width="1" stroke-linecap="square" stroke-linejoin="bevel" transform="matrix(0.6,0,0,0.6,370.8,71.64)"
font-family="Helvetica" font-size="18" font-weight="400" font-style="normal" 
>
<text fill="#212121" fill-opacity="1" stroke="none" xml:space="preserve" x="0" y="0" font-family="Helvetica" font-size="18" font-weight="400" font-style="normal" 
 >6.5</text>
</g>

<g fill="#212121" fill-opacity="1" stroke="#212121" stroke-opacity="1" stroke-width="1" stroke-linecap="square" stroke-linejoin="bevel" transform="matrix(0.6,0,0,0.6,379.8,45)"
font-family="Helvetica" font-size="18" font-weight="400" font-style="normal" 
>
<text fill="#212121" fill-opacity="1" stroke="none" xml:space="preserve" x="0" y="0" font-family="Helvetica" font-size="18" font-weight="400" font-style="normal" 
 >7</text>
</g>

<g fill="#212121" fill-opacity="1" stroke="#212121" stroke-opacity="1" stroke-width="1" stroke-linecap="square" stroke-linejoin="bevel" transform="matrix(0.6,0,0,0.6,483.3,37.185)"
font-family="Helvetica" font-size="20" font-weight="400" font-style="normal" 
>
<text fill="#212121" fill-opacity="1" stroke="none" xml:space="preserve" x="0" y="0" font-family="Helvetica" font-size="20" font-weight="400" font-style="normal" 
 >Linear refinement 3</text>
</g>

<g fill="none" stroke="#1171be" stroke-opacity="1" stroke-width="2.5" stroke-linecap="butt" stroke-linejoin="round" transform="matrix(0.6,0,0,0.6,0,0)"
font-family="Helvetica" font-size="20" font-weight="400" font-style="normal" 
>
<polyline fill="none" vector-effect="none" points="650,512.732 697.916,498.135 745.832,482.454 793.748,467.791 841.664,453.774 889.58,440.41 937.496,427.739 985.412,415.241 1033.33,402.996 1081.24,390.284 1129.16,378.211 " />
</g>

<g fill="none" stroke="#1171be" stroke-opacity="1" stroke-width="2.5" stroke-linecap="butt" stroke-linejoin="miter" stroke-miterlimit="5" transform="matrix(0.6,0,0,0.6,0,0)"
font-family="Helvetica" font-size="20" font-weight="400" font-style="normal" 
>
<path vector-effect="none" fill-rule="evenodd" d="M655,512.732 C655,509.971 652.761,507.732 650,507.732 C647.239,507.732 645,509.971 645,512.732 C645,515.494 647.239,517.732 650,517.732 C652.761,517.732 655,515.494 655,512.732 "/>
<path vector-effect="none" fill-rule="evenodd" d="M702.916,498.135 C702.916,495.374 700.677,493.135 697.916,493.135 C695.155,493.135 692.916,495.374 692.916,498.135 C692.916,500.896 695.155,503.135 697.916,503.135 C700.677,503.135 702.916,500.896 702.916,498.135 "/>
<path vector-effect="none" fill-rule="evenodd" d="M750.832,482.454 C750.832,479.693 748.593,477.454 745.832,477.454 C743.071,477.454 740.832,479.693 740.832,482.454 C740.832,485.216 743.071,487.454 745.832,487.454 C748.593,487.454 750.832,485.216 750.832,482.454 "/>
<path vector-effect="none" fill-rule="evenodd" d="M798.748,467.791 C798.748,465.029 796.509,462.791 793.748,462.791 C790.987,462.791 788.748,465.029 788.748,467.791 C788.748,470.552 790.987,472.791 793.748,472.791 C796.509,472.791 798.748,470.552 798.748,467.791 "/>
<path vector-effect="none" fill-rule="evenodd" d="M846.664,453.774 C846.664,451.012 844.425,448.774 841.664,448.774 C838.903,448.774 836.664,451.012 836.664,453.774 C836.664,456.535 838.903,458.774 841.664,458.774 C844.425,458.774 846.664,456.535 846.664,453.774 "/>
<path vector-effect="none" fill-rule="evenodd" d="M894.58,440.41 C894.58,437.649 892.341,435.41 889.58,435.41 C886.819,435.41 884.58,437.649 884.58,440.41 C884.58,443.172 886.819,445.41 889.58,445.41 C892.341,445.41 894.58,443.172 894.58,440.41 "/>
<path vector-effect="none" fill-rule="evenodd" d="M942.496,427.739 C942.496,424.978 940.257,422.739 937.496,422.739 C934.735,422.739 932.496,424.978 932.496,427.739 C932.496,430.501 934.735,432.739 937.496,432.739 C940.257,432.739 942.496,430.501 942.496,427.739 "/>
<path vector-effect="none" fill-rule="evenodd" d="M990.412,415.241 C990.412,412.48 988.173,410.241 985.412,410.241 C982.651,410.241 980.412,412.48 980.412,415.241 C980.412,418.003 982.651,420.241 985.412,420.241 C988.173,420.241 990.412,418.003 990.412,415.241 "/>
<path vector-effect="none" fill-rule="evenodd" d="M1038.33,402.996 C1038.33,400.235 1036.09,397.996 1033.33,397.996 C1030.57,397.996 1028.33,400.235 1028.33,402.996 C1028.33,405.758 1030.57,407.996 1033.33,407.996 C1036.09,407.996 1038.33,405.758 1038.33,402.996 "/>
<path vector-effect="none" fill-rule="evenodd" d="M1086.24,390.284 C1086.24,387.522 1084.01,385.284 1081.24,385.284 C1078.48,385.284 1076.24,387.522 1076.24,390.284 C1076.24,393.045 1078.48,395.284 1081.24,395.284 C1084.01,395.284 1086.24,393.045 1086.24,390.284 "/>
<path vector-effect="none" fill-rule="evenodd" d="M1134.16,378.211 C1134.16,375.45 1131.92,373.211 1129.16,373.211 C1126.4,373.211 1124.16,375.45 1124.16,378.211 C1124.16,380.973 1126.4,383.211 1129.16,383.211 C1131.92,383.211 1134.16,380.973 1134.16,378.211 "/>
</g>

<g fill="none" stroke="#dd5400" stroke-opacity="1" stroke-width="2.5" stroke-linecap="butt" stroke-linejoin="round" transform="matrix(0.6,0,0,0.6,0,0)"
font-family="Helvetica" font-size="20" font-weight="400" font-style="normal" 
>
<polyline fill="none" vector-effect="none" points="650,97.8227 697.916,174.121 745.832,216.889 793.748,243.08 841.664,258.305 889.58,266.61 937.496,270.341 985.412,270.508 1033.33,267.87 1081.24,262.812 1129.16,256.493 " />
</g>

<g fill="none" stroke="#dd5400" stroke-opacity="1" stroke-width="2.5" stroke-linecap="butt" stroke-linejoin="miter" stroke-miterlimit="5" transform="matrix(0.6,0,0,0.6,0,0)"
font-family="Helvetica" font-size="20" font-weight="400" font-style="normal" 
>
<path vector-effect="none" fill-rule="evenodd" d="M646.1,93.9227 L646.1,101.723 L653.9,101.723 L653.9,93.9227 L646.1,93.9227"/>
<path vector-effect="none" fill-rule="evenodd" d="M694.016,170.221 L694.016,178.021 L701.816,178.021 L701.816,170.221 L694.016,170.221"/>
<path vector-effect="none" fill-rule="evenodd" d="M741.932,212.989 L741.932,220.789 L749.732,220.789 L749.732,212.989 L741.932,212.989"/>
<path vector-effect="none" fill-rule="evenodd" d="M789.848,239.18 L789.848,246.98 L797.648,246.98 L797.648,239.18 L789.848,239.18"/>
<path vector-effect="none" fill-rule="evenodd" d="M837.764,254.405 L837.764,262.205 L845.564,262.205 L845.564,254.405 L837.764,254.405"/>
<path vector-effect="none" fill-rule="evenodd" d="M885.68,262.71 L885.68,270.51 L893.48,270.51 L893.48,262.71 L885.68,262.71"/>
<path vector-effect="none" fill-rule="evenodd" d="M933.596,266.441 L933.596,274.241 L941.396,274.241 L941.396,266.441 L933.596,266.441"/>
<path vector-effect="none" fill-rule="evenodd" d="M981.512,266.608 L981.512,274.408 L989.312,274.408 L989.312,266.608 L981.512,266.608"/>
<path vector-effect="none" fill-rule="evenodd" d="M1029.43,263.97 L1029.43,271.77 L1037.23,271.77 L1037.23,263.97 L1029.43,263.97"/>
<path vector-effect="none" fill-rule="evenodd" d="M1077.34,258.912 L1077.34,266.712 L1085.14,266.712 L1085.14,258.912 L1077.34,258.912"/>
<path vector-effect="none" fill-rule="evenodd" d="M1125.26,252.593 L1125.26,260.393 L1133.06,260.393 L1133.06,252.593 L1125.26,252.593"/>
</g>

<g fill="none" stroke="#edb120" stroke-opacity="1" stroke-dasharray="8,8" stroke-dashoffset="0" stroke-width="2.5" stroke-linecap="butt" stroke-linejoin="round" transform="matrix(0.6,0,0,0.6,0,0)"
font-family="Helvetica" font-size="20" font-weight="400" font-style="normal" 
>
<polyline fill="none" vector-effect="none" points="650,512.732 697.916,498.135 745.832,482.454 793.748,467.791 841.664,453.774 889.58,440.41 937.496,427.739 985.412,415.241 1033.33,402.996 1081.24,390.284 1129.16,378.211 " />
</g>

<g fill="none" stroke="#edb120" stroke-opacity="1" stroke-width="2.5" stroke-linecap="butt" stroke-linejoin="miter" stroke-miterlimit="5" transform="matrix(0.6,0,0,0.6,0,0)"
font-family="Helvetica" font-size="20" font-weight="400" font-style="normal" 
>
<path vector-effect="none" fill-rule="evenodd" d="M650,506.082 L644.241,516.057 L655.759,516.057 L650,506.082"/>
<path vector-effect="none" fill-rule="evenodd" d="M697.916,491.485 L692.157,501.46 L703.675,501.46 L697.916,491.485"/>
<path vector-effect="none" fill-rule="evenodd" d="M745.832,475.804 L740.073,485.779 L751.591,485.779 L745.832,475.804"/>
<path vector-effect="none" fill-rule="evenodd" d="M793.748,461.141 L787.989,471.116 L799.507,471.116 L793.748,461.141"/>
<path vector-effect="none" fill-rule="evenodd" d="M841.664,447.124 L835.905,457.099 L847.423,457.099 L841.664,447.124"/>
<path vector-effect="none" fill-rule="evenodd" d="M889.58,433.76 L883.821,443.735 L895.339,443.735 L889.58,433.76"/>
<path vector-effect="none" fill-rule="evenodd" d="M937.496,421.089 L931.737,431.064 L943.255,431.064 L937.496,421.089"/>
<path vector-effect="none" fill-rule="evenodd" d="M985.412,408.591 L979.653,418.566 L991.171,418.566 L985.412,408.591"/>
<path vector-effect="none" fill-rule="evenodd" d="M1033.33,396.346 L1027.57,406.321 L1039.09,406.321 L1033.33,396.346"/>
<path vector-effect="none" fill-rule="evenodd" d="M1081.24,383.634 L1075.49,393.609 L1087,393.609 L1081.24,383.634"/>
<path vector-effect="none" fill-rule="evenodd" d="M1129.16,371.561 L1123.4,381.536 L1134.92,381.536 L1129.16,371.561"/>
</g>

<g fill="#bf1a1a" fill-opacity="0.701961" stroke="#bf1a1a" stroke-opacity="0.701961" stroke-dasharray="10,6" stroke-dashoffset="0" stroke-width="0.833333" stroke-linecap="butt" stroke-linejoin="round" transform="matrix(0.6,0,0,0.6,0,0)"
font-family="Helvetica" font-size="20" font-weight="400" font-style="normal" 
>
<polyline fill="none" vector-effect="none" points="985.412,513 985.412,69 " />
</g>

<g fill="#bf1a1a" fill-opacity="1" stroke="#bf1a1a" stroke-opacity="1" stroke-width="1" stroke-linecap="square" stroke-linejoin="bevel" transform="matrix(0,-0.6,0.6,0,601.097,82.1896)"
font-family="Helvetica" font-size="16" font-weight="400" font-style="normal" 
>
<text fill="#bf1a1a" fill-opacity="1" stroke="none" xml:space="preserve" x="0" y="0" font-family="Helvetica" font-size="16" font-weight="400" font-style="normal" 
 >Selected</text>
</g>

<g fill="#ffffff" fill-opacity="1" stroke="none" transform="matrix(6e-05,0,0,6e-05,0,0)"
font-family="Helvetica" font-size="16" font-weight="400" font-style="normal" 
>
<path vector-effect="none" fill-rule="evenodd" d="M9.18e+06,770000 L9.18e+06,1.34e+06 L1.108e+07,1.34e+06 L1.108e+07,770000 L9.18e+06,770000"/>
</g>

<g fill="#1171be" fill-opacity="1" stroke="#1171be" stroke-opacity="1" stroke-width="2.5" stroke-linecap="butt" stroke-linejoin="round" transform="matrix(0.6,0,0,0.6,0,0)"
font-family="Helvetica" font-size="16" font-weight="400" font-style="normal" 
>
<polyline fill="none" vector-effect="none" points="922.98,87.952 972.784,87.952 " />
</g>

<g fill="none" stroke="#1171be" stroke-opacity="1" stroke-width="2.5" stroke-linecap="butt" stroke-linejoin="miter" stroke-miterlimit="5" transform="matrix(0.6,0,0,0.6,0,0)"
font-family="Helvetica" font-size="16" font-weight="400" font-style="normal" 
>
<path vector-effect="none" fill-rule="evenodd" d="M952.882,87.952 C952.882,85.1905 950.643,82.952 947.882,82.952 C945.121,82.952 942.882,85.1905 942.882,87.952 C942.882,90.7134 945.121,92.952 947.882,92.952 C950.643,92.952 952.882,90.7134 952.882,87.952 "/>
</g>

<g fill="#dd5400" fill-opacity="1" stroke="#dd5400" stroke-opacity="1" stroke-width="2.5" stroke-linecap="butt" stroke-linejoin="round" transform="matrix(0.6,0,0,0.6,0,0)"
font-family="Helvetica" font-size="16" font-weight="400" font-style="normal" 
>
<polyline fill="none" vector-effect="none" points="922.98,105.5 972.784,105.5 " />
</g>

<g fill="none" stroke="#dd5400" stroke-opacity="1" stroke-width="2.5" stroke-linecap="butt" stroke-linejoin="miter" stroke-miterlimit="5" transform="matrix(0.6,0,0,0.6,0,0)"
font-family="Helvetica" font-size="16" font-weight="400" font-style="normal" 
>
<path vector-effect="none" fill-rule="evenodd" d="M943.982,101.6 L943.982,109.4 L951.782,109.4 L951.782,101.6 L943.982,101.6"/>
</g>

<g fill="#edb120" fill-opacity="1" stroke="#edb120" stroke-opacity="1" stroke-dasharray="8,8" stroke-dashoffset="0" stroke-width="2.5" stroke-linecap="butt" stroke-linejoin="round" transform="matrix(0.6,0,0,0.6,0,0)"
font-family="Helvetica" font-size="16" font-weight="400" font-style="normal" 
>
<polyline fill="none" vector-effect="none" points="922.98,123.048 972.784,123.048 " />
</g>

<g fill="none" stroke="#edb120" stroke-opacity="1" stroke-width="2.5" stroke-linecap="butt" stroke-linejoin="miter" stroke-miterlimit="5" transform="matrix(0.6,0,0,0.6,0,0)"
font-family="Helvetica" font-size="16" font-weight="400" font-style="normal" 
>
<path vector-effect="none" fill-rule="evenodd" d="M947.882,116.398 L942.123,126.373 L953.641,126.373 L947.882,116.398"/>
</g>

<g fill="#212121" fill-opacity="1" stroke="#212121" stroke-opacity="1" stroke-width="1" stroke-linecap="square" stroke-linejoin="bevel" transform="matrix(0.6,0,0,0.6,585.911,56.0712)"
font-family="Helvetica" font-size="15" font-weight="400" font-style="normal" 
>
<text fill="#212121" fill-opacity="1" stroke="none" xml:space="preserve" x="0" y="0" font-family="Helvetica" font-size="15" font-weight="400" font-style="normal" 
 >Roll RMSE (mrad)</text>
</g>

<g fill="#212121" fill-opacity="1" stroke="#212121" stroke-opacity="1" stroke-width="1" stroke-linecap="square" stroke-linejoin="bevel" transform="matrix(0.6,0,0,0.6,585.911,66.6)"
font-family="Helvetica" font-size="15" font-weight="400" font-style="normal" 
>
<text fill="#212121" fill-opacity="1" stroke="none" xml:space="preserve" x="0" y="0" font-family="Helvetica" font-size="15" font-weight="400" font-style="normal" 
 >Depth RMSE (mm)</text>
</g>

<g fill="#212121" fill-opacity="1" stroke="#212121" stroke-opacity="1" stroke-width="1" stroke-linecap="square" stroke-linejoin="bevel" transform="matrix(0.6,0,0,0.6,585.911,77.1288)"
font-family="Helvetica" font-size="15" font-weight="400" font-style="normal" 
>
<text fill="#212121" fill-opacity="1" stroke="none" xml:space="preserve" x="0" y="0" font-family="Helvetica" font-size="15" font-weight="400" font-style="normal" 
 >Yaw RMSE (mrad)</text>
</g>

<g fill="none" stroke="#212121" stroke-opacity="1" stroke-width="0.833333" stroke-linecap="butt" stroke-linejoin="miter" stroke-miterlimit="5" transform="matrix(0.6,0,0,0.6,0,0)"
font-family="Helvetica" font-size="15" font-weight="400" font-style="normal" 
>
<path vector-effect="none" fill-rule="evenodd" d="M918,134 L918,77 L1108,77 L1108,134 L918,134"/>
</g>
</g>
</svg>
